<mxfile host="app.diagrams.net" agent="Mozilla/5.0 (Windows NT 10.0; Win64; x64) AppleWebKit/537.36 (KHTML, like Gecko) Chrome/134.0.0.0 Safari/537.36" version="26.2.9">
  <diagram name="Page-1" id="4jk_KUfN_Y006rhd_L-A">
    <mxGraphModel dx="2255" dy="1920" grid="1" gridSize="10" guides="1" tooltips="1" connect="1" arrows="1" fold="1" page="1" pageScale="1" pageWidth="827" pageHeight="1169" math="0" shadow="0">
      <root>
        <mxCell id="0" />
        <mxCell id="1" parent="0" />
        <mxCell id="eJ3n2poEC1Jb6eCSKDP9-1" value="" style="edgeStyle=orthogonalEdgeStyle;rounded=0;orthogonalLoop=1;jettySize=auto;html=1;labelBackgroundColor=none;fontColor=default;" edge="1" parent="1" source="eJ3n2poEC1Jb6eCSKDP9-2" target="eJ3n2poEC1Jb6eCSKDP9-10">
          <mxGeometry relative="1" as="geometry" />
        </mxCell>
        <mxCell id="eJ3n2poEC1Jb6eCSKDP9-2" value="Category" style="whiteSpace=wrap;html=1;align=center;labelBackgroundColor=none;" vertex="1" parent="1">
          <mxGeometry x="-210" y="240" width="80" height="40" as="geometry" />
        </mxCell>
        <mxCell id="eJ3n2poEC1Jb6eCSKDP9-3" value="Film" style="whiteSpace=wrap;html=1;align=center;labelBackgroundColor=none;" vertex="1" parent="1">
          <mxGeometry x="280" y="240" width="80" height="40" as="geometry" />
        </mxCell>
        <mxCell id="eJ3n2poEC1Jb6eCSKDP9-4" value="Lenguage" style="whiteSpace=wrap;html=1;align=center;labelBackgroundColor=none;" vertex="1" parent="1">
          <mxGeometry x="280" y="420" width="80" height="40" as="geometry" />
        </mxCell>
        <mxCell id="eJ3n2poEC1Jb6eCSKDP9-5" value="Inventory" style="whiteSpace=wrap;html=1;align=center;labelBackgroundColor=none;" vertex="1" parent="1">
          <mxGeometry x="560" y="-120" width="80" height="40" as="geometry" />
        </mxCell>
        <mxCell id="eJ3n2poEC1Jb6eCSKDP9-6" value="Actor" style="whiteSpace=wrap;html=1;align=center;labelBackgroundColor=none;" vertex="1" parent="1">
          <mxGeometry x="720" y="350" width="80" height="40" as="geometry" />
        </mxCell>
        <mxCell id="eJ3n2poEC1Jb6eCSKDP9-7" value="Film_category" style="shape=rhombus;perimeter=rhombusPerimeter;whiteSpace=wrap;html=1;align=center;labelBackgroundColor=none;" vertex="1" parent="1">
          <mxGeometry x="-10" y="235" width="100" height="50" as="geometry" />
        </mxCell>
        <mxCell id="eJ3n2poEC1Jb6eCSKDP9-8" value="last_update" style="ellipse;whiteSpace=wrap;html=1;align=center;labelBackgroundColor=none;" vertex="1" parent="1">
          <mxGeometry y="180" width="80" height="40" as="geometry" />
        </mxCell>
        <mxCell id="eJ3n2poEC1Jb6eCSKDP9-9" value="" style="endArrow=none;html=1;rounded=0;entryX=0.5;entryY=0;entryDx=0;entryDy=0;exitX=0.5;exitY=1;exitDx=0;exitDy=0;labelBackgroundColor=none;fontColor=default;" edge="1" parent="1" source="eJ3n2poEC1Jb6eCSKDP9-8" target="eJ3n2poEC1Jb6eCSKDP9-7">
          <mxGeometry relative="1" as="geometry">
            <mxPoint x="210" y="170" as="sourcePoint" />
            <mxPoint x="370" y="170" as="targetPoint" />
          </mxGeometry>
        </mxCell>
        <mxCell id="eJ3n2poEC1Jb6eCSKDP9-10" value="last_update" style="ellipse;whiteSpace=wrap;html=1;align=center;labelBackgroundColor=none;" vertex="1" parent="1">
          <mxGeometry x="-210" y="160" width="80" height="40" as="geometry" />
        </mxCell>
        <mxCell id="eJ3n2poEC1Jb6eCSKDP9-11" value="name" style="ellipse;whiteSpace=wrap;html=1;align=center;labelBackgroundColor=none;" vertex="1" parent="1">
          <mxGeometry x="-210" y="320" width="80" height="40" as="geometry" />
        </mxCell>
        <mxCell id="eJ3n2poEC1Jb6eCSKDP9-12" value="" style="endArrow=none;html=1;rounded=0;entryX=0.5;entryY=0;entryDx=0;entryDy=0;exitX=0.5;exitY=1;exitDx=0;exitDy=0;labelBackgroundColor=none;fontColor=default;" edge="1" parent="1">
          <mxGeometry relative="1" as="geometry">
            <mxPoint x="-170.5" y="200" as="sourcePoint" />
            <mxPoint x="-170.5" y="240" as="targetPoint" />
          </mxGeometry>
        </mxCell>
        <mxCell id="eJ3n2poEC1Jb6eCSKDP9-13" value="" style="endArrow=none;html=1;rounded=0;entryX=0.5;entryY=0;entryDx=0;entryDy=0;exitX=0.5;exitY=1;exitDx=0;exitDy=0;labelBackgroundColor=none;fontColor=default;" edge="1" parent="1">
          <mxGeometry relative="1" as="geometry">
            <mxPoint x="-170.5" y="280" as="sourcePoint" />
            <mxPoint x="-170.5" y="320" as="targetPoint" />
          </mxGeometry>
        </mxCell>
        <mxCell id="eJ3n2poEC1Jb6eCSKDP9-14" value="title" style="ellipse;whiteSpace=wrap;html=1;align=center;labelBackgroundColor=none;" vertex="1" parent="1">
          <mxGeometry x="360" y="170" width="80" height="40" as="geometry" />
        </mxCell>
        <mxCell id="eJ3n2poEC1Jb6eCSKDP9-15" value="description" style="ellipse;whiteSpace=wrap;html=1;align=center;labelBackgroundColor=none;" vertex="1" parent="1">
          <mxGeometry x="360" y="120" width="80" height="40" as="geometry" />
        </mxCell>
        <mxCell id="eJ3n2poEC1Jb6eCSKDP9-16" value="release_year" style="ellipse;whiteSpace=wrap;html=1;align=center;labelBackgroundColor=none;" vertex="1" parent="1">
          <mxGeometry x="360" y="70" width="80" height="40" as="geometry" />
        </mxCell>
        <mxCell id="eJ3n2poEC1Jb6eCSKDP9-17" value="language_id" style="ellipse;whiteSpace=wrap;html=1;align=center;labelBackgroundColor=none;" vertex="1" parent="1">
          <mxGeometry x="360" y="20" width="80" height="40" as="geometry" />
        </mxCell>
        <mxCell id="eJ3n2poEC1Jb6eCSKDP9-18" value="rental_duration" style="ellipse;whiteSpace=wrap;html=1;align=center;labelBackgroundColor=none;" vertex="1" parent="1">
          <mxGeometry x="360" y="-30" width="100" height="40" as="geometry" />
        </mxCell>
        <mxCell id="eJ3n2poEC1Jb6eCSKDP9-19" value="special_features" style="ellipse;whiteSpace=wrap;html=1;align=center;labelBackgroundColor=none;" vertex="1" parent="1">
          <mxGeometry x="180" y="70" width="100" height="40" as="geometry" />
        </mxCell>
        <mxCell id="eJ3n2poEC1Jb6eCSKDP9-20" value="last_update" style="ellipse;whiteSpace=wrap;html=1;align=center;labelBackgroundColor=none;" vertex="1" parent="1">
          <mxGeometry x="200" y="20" width="80" height="40" as="geometry" />
        </mxCell>
        <mxCell id="eJ3n2poEC1Jb6eCSKDP9-21" value="rating" style="ellipse;whiteSpace=wrap;html=1;align=center;labelBackgroundColor=none;" vertex="1" parent="1">
          <mxGeometry x="200" y="-30" width="80" height="40" as="geometry" />
        </mxCell>
        <mxCell id="eJ3n2poEC1Jb6eCSKDP9-22" value="rental_rate" style="ellipse;whiteSpace=wrap;html=1;align=center;labelBackgroundColor=none;" vertex="1" parent="1">
          <mxGeometry x="360" y="-80" width="80" height="40" as="geometry" />
        </mxCell>
        <mxCell id="eJ3n2poEC1Jb6eCSKDP9-23" value="replacement_cost" style="ellipse;whiteSpace=wrap;html=1;align=center;labelBackgroundColor=none;" vertex="1" parent="1">
          <mxGeometry x="180" y="-80" width="100" height="40" as="geometry" />
        </mxCell>
        <mxCell id="eJ3n2poEC1Jb6eCSKDP9-24" value="lenght" style="ellipse;whiteSpace=wrap;html=1;align=center;labelBackgroundColor=none;" vertex="1" parent="1">
          <mxGeometry x="280" y="-130" width="80" height="40" as="geometry" />
        </mxCell>
        <mxCell id="eJ3n2poEC1Jb6eCSKDP9-25" value="fulltext" style="ellipse;whiteSpace=wrap;html=1;align=center;labelBackgroundColor=none;" vertex="1" parent="1">
          <mxGeometry x="200" y="120" width="80" height="40" as="geometry" />
        </mxCell>
        <mxCell id="eJ3n2poEC1Jb6eCSKDP9-26" value="last_update" style="ellipse;whiteSpace=wrap;html=1;align=center;labelBackgroundColor=none;" vertex="1" parent="1">
          <mxGeometry x="170" y="420" width="80" height="40" as="geometry" />
        </mxCell>
        <mxCell id="eJ3n2poEC1Jb6eCSKDP9-27" value="name" style="ellipse;whiteSpace=wrap;html=1;align=center;labelBackgroundColor=none;" vertex="1" parent="1">
          <mxGeometry x="220" y="480" width="80" height="40" as="geometry" />
        </mxCell>
        <mxCell id="eJ3n2poEC1Jb6eCSKDP9-28" value="film_id" style="ellipse;whiteSpace=wrap;html=1;align=center;labelBackgroundColor=none;" vertex="1" parent="1">
          <mxGeometry x="560" y="-200" width="80" height="40" as="geometry" />
        </mxCell>
        <mxCell id="eJ3n2poEC1Jb6eCSKDP9-29" value="store_id" style="ellipse;whiteSpace=wrap;html=1;align=center;labelBackgroundColor=none;" vertex="1" parent="1">
          <mxGeometry x="460" y="-160" width="80" height="40" as="geometry" />
        </mxCell>
        <mxCell id="eJ3n2poEC1Jb6eCSKDP9-30" value="last_update" style="ellipse;whiteSpace=wrap;html=1;align=center;labelBackgroundColor=none;" vertex="1" parent="1">
          <mxGeometry x="660" y="-160" width="80" height="40" as="geometry" />
        </mxCell>
        <mxCell id="eJ3n2poEC1Jb6eCSKDP9-31" value="Rental" style="whiteSpace=wrap;html=1;align=center;labelBackgroundColor=none;" vertex="1" parent="1">
          <mxGeometry x="840" y="-120" width="80" height="40" as="geometry" />
        </mxCell>
        <mxCell id="eJ3n2poEC1Jb6eCSKDP9-32" value="Film_actor" style="shape=rhombus;perimeter=rhombusPerimeter;whiteSpace=wrap;html=1;align=center;labelBackgroundColor=none;" vertex="1" parent="1">
          <mxGeometry x="495" y="345" width="90" height="50" as="geometry" />
        </mxCell>
        <mxCell id="eJ3n2poEC1Jb6eCSKDP9-33" value="last_update" style="ellipse;whiteSpace=wrap;html=1;align=center;labelBackgroundColor=none;" vertex="1" parent="1">
          <mxGeometry x="500" y="410" width="80" height="40" as="geometry" />
        </mxCell>
        <mxCell id="eJ3n2poEC1Jb6eCSKDP9-34" value="" style="endArrow=none;html=1;rounded=0;exitX=0.5;exitY=1;exitDx=0;exitDy=0;labelBackgroundColor=none;fontColor=default;" edge="1" parent="1" source="eJ3n2poEC1Jb6eCSKDP9-32">
          <mxGeometry relative="1" as="geometry">
            <mxPoint x="540" y="390" as="sourcePoint" />
            <mxPoint x="540" y="410" as="targetPoint" />
          </mxGeometry>
        </mxCell>
        <mxCell id="eJ3n2poEC1Jb6eCSKDP9-35" value="first_name" style="ellipse;whiteSpace=wrap;html=1;align=center;labelBackgroundColor=none;" vertex="1" parent="1">
          <mxGeometry x="720" y="430" width="80" height="40" as="geometry" />
        </mxCell>
        <mxCell id="eJ3n2poEC1Jb6eCSKDP9-36" value="last_name" style="ellipse;whiteSpace=wrap;html=1;align=center;labelBackgroundColor=none;" vertex="1" parent="1">
          <mxGeometry x="830" y="390" width="80" height="40" as="geometry" />
        </mxCell>
        <mxCell id="eJ3n2poEC1Jb6eCSKDP9-37" value="last_update" style="ellipse;whiteSpace=wrap;html=1;align=center;labelBackgroundColor=none;" vertex="1" parent="1">
          <mxGeometry x="830" y="310" width="80" height="40" as="geometry" />
        </mxCell>
        <mxCell id="eJ3n2poEC1Jb6eCSKDP9-38" value="" style="endArrow=none;html=1;rounded=0;entryX=0;entryY=0.5;entryDx=0;entryDy=0;exitX=1;exitY=0.25;exitDx=0;exitDy=0;labelBackgroundColor=none;fontColor=default;" edge="1" parent="1" source="eJ3n2poEC1Jb6eCSKDP9-6" target="eJ3n2poEC1Jb6eCSKDP9-37">
          <mxGeometry relative="1" as="geometry">
            <mxPoint x="540" y="270" as="sourcePoint" />
            <mxPoint x="700" y="270" as="targetPoint" />
          </mxGeometry>
        </mxCell>
        <mxCell id="eJ3n2poEC1Jb6eCSKDP9-39" value="" style="endArrow=none;html=1;rounded=0;entryX=0.5;entryY=0;entryDx=0;entryDy=0;exitX=0.5;exitY=1;exitDx=0;exitDy=0;labelBackgroundColor=none;fontColor=default;" edge="1" parent="1" source="eJ3n2poEC1Jb6eCSKDP9-6" target="eJ3n2poEC1Jb6eCSKDP9-35">
          <mxGeometry relative="1" as="geometry">
            <mxPoint x="750" y="400" as="sourcePoint" />
            <mxPoint x="790" y="400" as="targetPoint" />
          </mxGeometry>
        </mxCell>
        <mxCell id="eJ3n2poEC1Jb6eCSKDP9-40" value="" style="endArrow=none;html=1;rounded=0;entryX=0;entryY=0.5;entryDx=0;entryDy=0;exitX=1;exitY=0.75;exitDx=0;exitDy=0;labelBackgroundColor=none;fontColor=default;" edge="1" parent="1" source="eJ3n2poEC1Jb6eCSKDP9-6" target="eJ3n2poEC1Jb6eCSKDP9-36">
          <mxGeometry relative="1" as="geometry">
            <mxPoint x="770" y="400" as="sourcePoint" />
            <mxPoint x="770" y="440" as="targetPoint" />
          </mxGeometry>
        </mxCell>
        <mxCell id="eJ3n2poEC1Jb6eCSKDP9-41" value="" style="endArrow=none;html=1;rounded=0;entryX=1;entryY=0;entryDx=0;entryDy=0;exitX=0.25;exitY=1;exitDx=0;exitDy=0;labelBackgroundColor=none;fontColor=default;" edge="1" parent="1" source="eJ3n2poEC1Jb6eCSKDP9-4" target="eJ3n2poEC1Jb6eCSKDP9-27">
          <mxGeometry relative="1" as="geometry">
            <mxPoint x="350" y="480" as="sourcePoint" />
            <mxPoint x="350" y="520" as="targetPoint" />
          </mxGeometry>
        </mxCell>
        <mxCell id="eJ3n2poEC1Jb6eCSKDP9-42" value="" style="endArrow=none;html=1;rounded=0;entryX=1;entryY=0.5;entryDx=0;entryDy=0;labelBackgroundColor=none;fontColor=default;" edge="1" parent="1" source="eJ3n2poEC1Jb6eCSKDP9-4" target="eJ3n2poEC1Jb6eCSKDP9-26">
          <mxGeometry relative="1" as="geometry">
            <mxPoint x="580" y="440" as="sourcePoint" />
            <mxPoint x="580" y="480" as="targetPoint" />
          </mxGeometry>
        </mxCell>
        <mxCell id="eJ3n2poEC1Jb6eCSKDP9-43" value="inventory_id" style="ellipse;whiteSpace=wrap;html=1;align=center;labelBackgroundColor=none;" vertex="1" parent="1">
          <mxGeometry x="910" y="-230" width="80" height="40" as="geometry" />
        </mxCell>
        <mxCell id="eJ3n2poEC1Jb6eCSKDP9-44" value="rental_date" style="ellipse;whiteSpace=wrap;html=1;align=center;labelBackgroundColor=none;" vertex="1" parent="1">
          <mxGeometry x="910" y="-180" width="80" height="40" as="geometry" />
        </mxCell>
        <mxCell id="eJ3n2poEC1Jb6eCSKDP9-45" value="last_update" style="ellipse;whiteSpace=wrap;html=1;align=center;labelBackgroundColor=none;" vertex="1" parent="1">
          <mxGeometry x="770" y="-180" width="80" height="40" as="geometry" />
        </mxCell>
        <mxCell id="eJ3n2poEC1Jb6eCSKDP9-46" value="staff_id" style="ellipse;whiteSpace=wrap;html=1;align=center;labelBackgroundColor=none;" vertex="1" parent="1">
          <mxGeometry x="770" y="-230" width="80" height="40" as="geometry" />
        </mxCell>
        <mxCell id="eJ3n2poEC1Jb6eCSKDP9-47" value="customer_id" style="ellipse;whiteSpace=wrap;html=1;align=center;labelBackgroundColor=none;" vertex="1" parent="1">
          <mxGeometry x="910" y="-280" width="80" height="40" as="geometry" />
        </mxCell>
        <mxCell id="eJ3n2poEC1Jb6eCSKDP9-48" value="return_date" style="ellipse;whiteSpace=wrap;html=1;align=center;labelBackgroundColor=none;" vertex="1" parent="1">
          <mxGeometry x="770" y="-280" width="80" height="40" as="geometry" />
        </mxCell>
        <mxCell id="eJ3n2poEC1Jb6eCSKDP9-49" value="" style="endArrow=none;html=1;rounded=0;entryX=0.5;entryY=0;entryDx=0;entryDy=0;exitX=0.5;exitY=1;exitDx=0;exitDy=0;labelBackgroundColor=none;fontColor=default;" edge="1" parent="1" source="eJ3n2poEC1Jb6eCSKDP9-105" target="eJ3n2poEC1Jb6eCSKDP9-31">
          <mxGeometry relative="1" as="geometry">
            <mxPoint x="880" y="-260" as="sourcePoint" />
            <mxPoint x="930" y="-120" as="targetPoint" />
          </mxGeometry>
        </mxCell>
        <mxCell id="eJ3n2poEC1Jb6eCSKDP9-50" value="" style="endArrow=none;html=1;rounded=0;exitX=1;exitY=0.5;exitDx=0;exitDy=0;entryX=0;entryY=0.5;entryDx=0;entryDy=0;labelBackgroundColor=none;fontColor=default;" edge="1" parent="1" source="eJ3n2poEC1Jb6eCSKDP9-48" target="eJ3n2poEC1Jb6eCSKDP9-47">
          <mxGeometry relative="1" as="geometry">
            <mxPoint x="860" y="-280" as="sourcePoint" />
            <mxPoint x="900" y="-270" as="targetPoint" />
          </mxGeometry>
        </mxCell>
        <mxCell id="eJ3n2poEC1Jb6eCSKDP9-51" value="" style="endArrow=none;html=1;rounded=0;exitX=1;exitY=0.5;exitDx=0;exitDy=0;entryX=0;entryY=0.5;entryDx=0;entryDy=0;labelBackgroundColor=none;fontColor=default;" edge="1" parent="1">
          <mxGeometry relative="1" as="geometry">
            <mxPoint x="850" y="-210.24" as="sourcePoint" />
            <mxPoint x="910" y="-210.24" as="targetPoint" />
          </mxGeometry>
        </mxCell>
        <mxCell id="eJ3n2poEC1Jb6eCSKDP9-52" value="" style="endArrow=none;html=1;rounded=0;exitX=1;exitY=0.5;exitDx=0;exitDy=0;entryX=0;entryY=0.5;entryDx=0;entryDy=0;labelBackgroundColor=none;fontColor=default;" edge="1" parent="1">
          <mxGeometry relative="1" as="geometry">
            <mxPoint x="850" y="-160.24" as="sourcePoint" />
            <mxPoint x="910" y="-160.24" as="targetPoint" />
          </mxGeometry>
        </mxCell>
        <mxCell id="eJ3n2poEC1Jb6eCSKDP9-53" value="Customer" style="whiteSpace=wrap;html=1;align=center;labelBackgroundColor=none;" vertex="1" parent="1">
          <mxGeometry x="1040" y="-120" width="80" height="40" as="geometry" />
        </mxCell>
        <mxCell id="eJ3n2poEC1Jb6eCSKDP9-54" value="Address" style="whiteSpace=wrap;html=1;align=center;labelBackgroundColor=none;" vertex="1" parent="1">
          <mxGeometry x="1280" y="-120" width="80" height="40" as="geometry" />
        </mxCell>
        <mxCell id="eJ3n2poEC1Jb6eCSKDP9-55" value="City" style="whiteSpace=wrap;html=1;align=center;labelBackgroundColor=none;" vertex="1" parent="1">
          <mxGeometry x="1440" y="-120" width="80" height="40" as="geometry" />
        </mxCell>
        <mxCell id="eJ3n2poEC1Jb6eCSKDP9-56" value="Country" style="whiteSpace=wrap;html=1;align=center;labelBackgroundColor=none;" vertex="1" parent="1">
          <mxGeometry x="1600" y="-120" width="80" height="40" as="geometry" />
        </mxCell>
        <mxCell id="eJ3n2poEC1Jb6eCSKDP9-57" value="last_update" style="ellipse;whiteSpace=wrap;html=1;align=center;labelBackgroundColor=none;" vertex="1" parent="1">
          <mxGeometry x="1600" y="-40" width="80" height="40" as="geometry" />
        </mxCell>
        <mxCell id="eJ3n2poEC1Jb6eCSKDP9-58" value="country" style="ellipse;whiteSpace=wrap;html=1;align=center;labelBackgroundColor=none;" vertex="1" parent="1">
          <mxGeometry x="1600" y="-200" width="80" height="40" as="geometry" />
        </mxCell>
        <mxCell id="eJ3n2poEC1Jb6eCSKDP9-59" value="last_update" style="ellipse;whiteSpace=wrap;html=1;align=center;labelBackgroundColor=none;" vertex="1" parent="1">
          <mxGeometry x="1390" y="-50" width="80" height="40" as="geometry" />
        </mxCell>
        <mxCell id="eJ3n2poEC1Jb6eCSKDP9-60" value="" style="endArrow=none;html=1;rounded=0;entryX=0.5;entryY=0;entryDx=0;entryDy=0;exitX=0.5;exitY=1;exitDx=0;exitDy=0;labelBackgroundColor=none;fontColor=default;" edge="1" parent="1" source="eJ3n2poEC1Jb6eCSKDP9-56">
          <mxGeometry relative="1" as="geometry">
            <mxPoint x="1639.58" y="-180" as="sourcePoint" />
            <mxPoint x="1639.58" y="-40" as="targetPoint" />
          </mxGeometry>
        </mxCell>
        <mxCell id="eJ3n2poEC1Jb6eCSKDP9-61" value="" style="endArrow=none;html=1;rounded=0;entryX=0.5;entryY=0;entryDx=0;entryDy=0;exitX=0.5;exitY=1;exitDx=0;exitDy=0;labelBackgroundColor=none;fontColor=default;" edge="1" parent="1">
          <mxGeometry relative="1" as="geometry">
            <mxPoint x="1640" y="-160" as="sourcePoint" />
            <mxPoint x="1639.58" y="-120" as="targetPoint" />
          </mxGeometry>
        </mxCell>
        <mxCell id="eJ3n2poEC1Jb6eCSKDP9-62" value="" style="endArrow=none;html=1;rounded=0;entryX=0.5;entryY=0;entryDx=0;entryDy=0;exitX=0.25;exitY=1;exitDx=0;exitDy=0;labelBackgroundColor=none;fontColor=default;" edge="1" parent="1" source="eJ3n2poEC1Jb6eCSKDP9-55" target="eJ3n2poEC1Jb6eCSKDP9-59">
          <mxGeometry relative="1" as="geometry">
            <mxPoint x="1480" y="-80" as="sourcePoint" />
            <mxPoint x="1479.58" y="-40" as="targetPoint" />
          </mxGeometry>
        </mxCell>
        <mxCell id="eJ3n2poEC1Jb6eCSKDP9-63" value="country_id" style="ellipse;whiteSpace=wrap;html=1;align=center;labelBackgroundColor=none;" vertex="1" parent="1">
          <mxGeometry x="1490" y="-200" width="80" height="40" as="geometry" />
        </mxCell>
        <mxCell id="eJ3n2poEC1Jb6eCSKDP9-64" value="" style="endArrow=none;html=1;rounded=0;entryX=0.75;entryY=0;entryDx=0;entryDy=0;exitX=0.5;exitY=1;exitDx=0;exitDy=0;labelBackgroundColor=none;fontColor=default;" edge="1" parent="1" source="eJ3n2poEC1Jb6eCSKDP9-63" target="eJ3n2poEC1Jb6eCSKDP9-55">
          <mxGeometry relative="1" as="geometry">
            <mxPoint x="1480" y="-160" as="sourcePoint" />
            <mxPoint x="1479.58" y="-120" as="targetPoint" />
          </mxGeometry>
        </mxCell>
        <mxCell id="eJ3n2poEC1Jb6eCSKDP9-65" value="city" style="ellipse;whiteSpace=wrap;html=1;align=center;labelBackgroundColor=none;" vertex="1" parent="1">
          <mxGeometry x="1390" y="-200" width="80" height="40" as="geometry" />
        </mxCell>
        <mxCell id="eJ3n2poEC1Jb6eCSKDP9-66" value="" style="endArrow=none;html=1;rounded=0;entryX=0.25;entryY=0;entryDx=0;entryDy=0;exitX=0.5;exitY=1;exitDx=0;exitDy=0;labelBackgroundColor=none;fontColor=default;" edge="1" parent="1" source="eJ3n2poEC1Jb6eCSKDP9-65" target="eJ3n2poEC1Jb6eCSKDP9-55">
          <mxGeometry relative="1" as="geometry">
            <mxPoint x="1420.42" y="-150" as="sourcePoint" />
            <mxPoint x="1420" y="-110" as="targetPoint" />
          </mxGeometry>
        </mxCell>
        <mxCell id="eJ3n2poEC1Jb6eCSKDP9-67" value="district" style="ellipse;whiteSpace=wrap;html=1;align=center;labelBackgroundColor=none;" vertex="1" parent="1">
          <mxGeometry x="1220" y="-170" width="80" height="40" as="geometry" />
        </mxCell>
        <mxCell id="eJ3n2poEC1Jb6eCSKDP9-68" value="address2" style="ellipse;whiteSpace=wrap;html=1;align=center;labelBackgroundColor=none;" vertex="1" parent="1">
          <mxGeometry x="1220" y="-220" width="80" height="40" as="geometry" />
        </mxCell>
        <mxCell id="eJ3n2poEC1Jb6eCSKDP9-69" value="address" style="ellipse;whiteSpace=wrap;html=1;align=center;labelBackgroundColor=none;" vertex="1" parent="1">
          <mxGeometry x="1220" y="-270" width="80" height="40" as="geometry" />
        </mxCell>
        <mxCell id="eJ3n2poEC1Jb6eCSKDP9-70" value="city_id" style="ellipse;whiteSpace=wrap;html=1;align=center;labelBackgroundColor=none;" vertex="1" parent="1">
          <mxGeometry x="1220" y="-380" width="80" height="40" as="geometry" />
        </mxCell>
        <mxCell id="eJ3n2poEC1Jb6eCSKDP9-71" value="phone" style="ellipse;whiteSpace=wrap;html=1;align=center;labelBackgroundColor=none;" vertex="1" parent="1">
          <mxGeometry x="1340" y="-380" width="80" height="40" as="geometry" />
        </mxCell>
        <mxCell id="eJ3n2poEC1Jb6eCSKDP9-72" value="postal_code" style="ellipse;whiteSpace=wrap;html=1;align=center;labelBackgroundColor=none;" vertex="1" parent="1">
          <mxGeometry x="1220" y="-330" width="80" height="40" as="geometry" />
        </mxCell>
        <mxCell id="eJ3n2poEC1Jb6eCSKDP9-73" value="last_update" style="ellipse;whiteSpace=wrap;html=1;align=center;labelBackgroundColor=none;" vertex="1" parent="1">
          <mxGeometry x="1340" y="-330" width="80" height="40" as="geometry" />
        </mxCell>
        <mxCell id="eJ3n2poEC1Jb6eCSKDP9-74" value="" style="endArrow=none;html=1;rounded=0;labelBackgroundColor=none;fontColor=default;" edge="1" parent="1">
          <mxGeometry relative="1" as="geometry">
            <mxPoint x="1300" y="-250.14" as="sourcePoint" />
            <mxPoint x="1320" y="-250" as="targetPoint" />
          </mxGeometry>
        </mxCell>
        <mxCell id="eJ3n2poEC1Jb6eCSKDP9-75" value="" style="endArrow=none;html=1;rounded=0;exitX=1;exitY=0.5;exitDx=0;exitDy=0;entryX=0;entryY=0.5;entryDx=0;entryDy=0;labelBackgroundColor=none;fontColor=default;" edge="1" parent="1" source="eJ3n2poEC1Jb6eCSKDP9-72" target="eJ3n2poEC1Jb6eCSKDP9-73">
          <mxGeometry relative="1" as="geometry">
            <mxPoint x="1290" y="-250.83" as="sourcePoint" />
            <mxPoint x="1350" y="-250.83" as="targetPoint" />
          </mxGeometry>
        </mxCell>
        <mxCell id="eJ3n2poEC1Jb6eCSKDP9-76" value="" style="endArrow=none;html=1;rounded=0;exitX=1;exitY=0.5;exitDx=0;exitDy=0;entryX=0;entryY=0.5;entryDx=0;entryDy=0;labelBackgroundColor=none;fontColor=default;" edge="1" parent="1">
          <mxGeometry relative="1" as="geometry">
            <mxPoint x="1300" y="-360.42" as="sourcePoint" />
            <mxPoint x="1340" y="-360.42" as="targetPoint" />
          </mxGeometry>
        </mxCell>
        <mxCell id="eJ3n2poEC1Jb6eCSKDP9-77" value="" style="endArrow=none;html=1;rounded=0;exitX=0.5;exitY=0;exitDx=0;exitDy=0;entryX=0.5;entryY=1;entryDx=0;entryDy=0;labelBackgroundColor=none;fontColor=default;" edge="1" parent="1" source="eJ3n2poEC1Jb6eCSKDP9-54" target="eJ3n2poEC1Jb6eCSKDP9-107">
          <mxGeometry relative="1" as="geometry">
            <mxPoint x="1320" y="-140.42" as="sourcePoint" />
            <mxPoint x="1320" y="-360.27777777777777" as="targetPoint" />
          </mxGeometry>
        </mxCell>
        <mxCell id="eJ3n2poEC1Jb6eCSKDP9-78" value="" style="endArrow=none;html=1;rounded=0;exitX=1;exitY=0.5;exitDx=0;exitDy=0;labelBackgroundColor=none;fontColor=default;" edge="1" parent="1">
          <mxGeometry relative="1" as="geometry">
            <mxPoint x="1300" y="-150.21" as="sourcePoint" />
            <mxPoint x="1320" y="-149.79" as="targetPoint" />
          </mxGeometry>
        </mxCell>
        <mxCell id="eJ3n2poEC1Jb6eCSKDP9-79" value="" style="endArrow=none;html=1;rounded=0;exitX=1;exitY=0.5;exitDx=0;exitDy=0;labelBackgroundColor=none;fontColor=default;" edge="1" parent="1">
          <mxGeometry relative="1" as="geometry">
            <mxPoint x="1300" y="-200.42" as="sourcePoint" />
            <mxPoint x="1320" y="-199.99999999999997" as="targetPoint" />
            <Array as="points">
              <mxPoint x="1320" y="-199.99999999999997" />
            </Array>
          </mxGeometry>
        </mxCell>
        <mxCell id="eJ3n2poEC1Jb6eCSKDP9-80" value="address_id" style="ellipse;whiteSpace=wrap;html=1;align=center;labelBackgroundColor=none;" vertex="1" parent="1">
          <mxGeometry x="1110" y="-370" width="80" height="40" as="geometry" />
        </mxCell>
        <mxCell id="eJ3n2poEC1Jb6eCSKDP9-81" value="email" style="ellipse;whiteSpace=wrap;html=1;align=center;labelBackgroundColor=none;" vertex="1" parent="1">
          <mxGeometry x="1110" y="-320" width="80" height="40" as="geometry" />
        </mxCell>
        <mxCell id="eJ3n2poEC1Jb6eCSKDP9-82" value="last_update" style="ellipse;whiteSpace=wrap;html=1;align=center;labelBackgroundColor=none;" vertex="1" parent="1">
          <mxGeometry x="980" y="-320" width="80" height="40" as="geometry" />
        </mxCell>
        <mxCell id="eJ3n2poEC1Jb6eCSKDP9-83" value="active" style="ellipse;whiteSpace=wrap;html=1;align=center;labelBackgroundColor=none;" vertex="1" parent="1">
          <mxGeometry x="980" y="-370" width="80" height="40" as="geometry" />
        </mxCell>
        <mxCell id="eJ3n2poEC1Jb6eCSKDP9-84" value="activebool" style="ellipse;whiteSpace=wrap;html=1;align=center;labelBackgroundColor=none;" vertex="1" parent="1">
          <mxGeometry x="1110" y="-420" width="80" height="40" as="geometry" />
        </mxCell>
        <mxCell id="eJ3n2poEC1Jb6eCSKDP9-85" value="create_date" style="ellipse;whiteSpace=wrap;html=1;align=center;labelBackgroundColor=none;" vertex="1" parent="1">
          <mxGeometry x="980" y="-420" width="80" height="40" as="geometry" />
        </mxCell>
        <mxCell id="eJ3n2poEC1Jb6eCSKDP9-86" value="" style="endArrow=none;html=1;rounded=0;exitX=1;exitY=0.5;exitDx=0;exitDy=0;entryX=0;entryY=0.5;entryDx=0;entryDy=0;labelBackgroundColor=none;fontColor=default;" edge="1" parent="1" source="eJ3n2poEC1Jb6eCSKDP9-85" target="eJ3n2poEC1Jb6eCSKDP9-84">
          <mxGeometry relative="1" as="geometry">
            <mxPoint x="1080" y="-380" as="sourcePoint" />
            <mxPoint x="1120" y="-370" as="targetPoint" />
          </mxGeometry>
        </mxCell>
        <mxCell id="eJ3n2poEC1Jb6eCSKDP9-87" value="" style="endArrow=none;html=1;rounded=0;entryX=0;entryY=0.5;entryDx=0;entryDy=0;exitX=1;exitY=0.5;exitDx=0;exitDy=0;labelBackgroundColor=none;fontColor=default;" edge="1" parent="1" source="eJ3n2poEC1Jb6eCSKDP9-83" target="eJ3n2poEC1Jb6eCSKDP9-80">
          <mxGeometry relative="1" as="geometry">
            <mxPoint x="1090" y="-350" as="sourcePoint" />
            <mxPoint x="1130" y="-320.24" as="targetPoint" />
          </mxGeometry>
        </mxCell>
        <mxCell id="eJ3n2poEC1Jb6eCSKDP9-88" value="" style="endArrow=none;html=1;rounded=0;exitX=1;exitY=0.5;exitDx=0;exitDy=0;entryX=0;entryY=0.5;entryDx=0;entryDy=0;labelBackgroundColor=none;fontColor=default;" edge="1" parent="1" source="eJ3n2poEC1Jb6eCSKDP9-82" target="eJ3n2poEC1Jb6eCSKDP9-81">
          <mxGeometry relative="1" as="geometry">
            <mxPoint x="1070" y="-280.24" as="sourcePoint" />
            <mxPoint x="1130" y="-280.24" as="targetPoint" />
          </mxGeometry>
        </mxCell>
        <mxCell id="eJ3n2poEC1Jb6eCSKDP9-89" value="" style="endArrow=none;html=1;rounded=0;entryX=0.5;entryY=0;entryDx=0;entryDy=0;exitX=0.5;exitY=1;exitDx=0;exitDy=0;labelBackgroundColor=none;fontColor=default;" edge="1" parent="1" source="eJ3n2poEC1Jb6eCSKDP9-106">
          <mxGeometry relative="1" as="geometry">
            <mxPoint x="1080" y="-400" as="sourcePoint" />
            <mxPoint x="1079.58" y="-120" as="targetPoint" />
          </mxGeometry>
        </mxCell>
        <mxCell id="eJ3n2poEC1Jb6eCSKDP9-90" value="first_name" style="ellipse;whiteSpace=wrap;html=1;align=center;labelBackgroundColor=none;" vertex="1" parent="1">
          <mxGeometry x="1110" y="-220" width="80" height="40" as="geometry" />
        </mxCell>
        <mxCell id="eJ3n2poEC1Jb6eCSKDP9-91" value="last_name" style="ellipse;whiteSpace=wrap;html=1;align=center;labelBackgroundColor=none;" vertex="1" parent="1">
          <mxGeometry x="1110" y="-170" width="80" height="40" as="geometry" />
        </mxCell>
        <mxCell id="eJ3n2poEC1Jb6eCSKDP9-92" value="store_id" style="ellipse;whiteSpace=wrap;html=1;align=center;labelBackgroundColor=none;" vertex="1" parent="1">
          <mxGeometry x="1110" y="-270" width="80" height="40" as="geometry" />
        </mxCell>
        <mxCell id="eJ3n2poEC1Jb6eCSKDP9-93" value="" style="endArrow=none;html=1;rounded=0;entryX=0;entryY=0.5;entryDx=0;entryDy=0;labelBackgroundColor=none;fontColor=default;" edge="1" parent="1" target="eJ3n2poEC1Jb6eCSKDP9-91">
          <mxGeometry relative="1" as="geometry">
            <mxPoint x="1080" y="-150" as="sourcePoint" />
            <mxPoint x="1120" y="-310" as="targetPoint" />
          </mxGeometry>
        </mxCell>
        <mxCell id="eJ3n2poEC1Jb6eCSKDP9-94" value="" style="endArrow=none;html=1;rounded=0;entryX=0;entryY=0.5;entryDx=0;entryDy=0;labelBackgroundColor=none;fontColor=default;" edge="1" parent="1" target="eJ3n2poEC1Jb6eCSKDP9-90">
          <mxGeometry relative="1" as="geometry">
            <mxPoint x="1080" y="-200" as="sourcePoint" />
            <mxPoint x="1130" y="-300" as="targetPoint" />
          </mxGeometry>
        </mxCell>
        <mxCell id="eJ3n2poEC1Jb6eCSKDP9-95" value="Payment" style="whiteSpace=wrap;html=1;align=center;labelBackgroundColor=none;" vertex="1" parent="1">
          <mxGeometry x="840" y="160" width="80" height="40" as="geometry" />
        </mxCell>
        <mxCell id="eJ3n2poEC1Jb6eCSKDP9-96" value="Staff" style="whiteSpace=wrap;html=1;align=center;labelBackgroundColor=none;" vertex="1" parent="1">
          <mxGeometry x="1280" y="160" width="80" height="40" as="geometry" />
        </mxCell>
        <mxCell id="eJ3n2poEC1Jb6eCSKDP9-97" value="Store" style="whiteSpace=wrap;html=1;align=center;labelBackgroundColor=none;" vertex="1" parent="1">
          <mxGeometry x="1200" y="20" width="80" height="40" as="geometry" />
        </mxCell>
        <mxCell id="eJ3n2poEC1Jb6eCSKDP9-98" value="" style="endArrow=none;html=1;rounded=0;entryX=0;entryY=0.5;entryDx=0;entryDy=0;labelBackgroundColor=none;fontColor=default;" edge="1" parent="1">
          <mxGeometry relative="1" as="geometry">
            <mxPoint x="1080" y="-250.2" as="sourcePoint" />
            <mxPoint x="1110" y="-250.2" as="targetPoint" />
          </mxGeometry>
        </mxCell>
        <mxCell id="eJ3n2poEC1Jb6eCSKDP9-99" value="last_update" style="ellipse;whiteSpace=wrap;html=1;align=center;labelBackgroundColor=none;" vertex="1" parent="1">
          <mxGeometry x="1090" y="40" width="80" height="40" as="geometry" />
        </mxCell>
        <mxCell id="eJ3n2poEC1Jb6eCSKDP9-100" value="address_id" style="ellipse;whiteSpace=wrap;html=1;align=center;labelBackgroundColor=none;" vertex="1" parent="1">
          <mxGeometry x="1090" y="-20" width="80" height="40" as="geometry" />
        </mxCell>
        <mxCell id="eJ3n2poEC1Jb6eCSKDP9-101" value="manager_staff_id" style="ellipse;whiteSpace=wrap;html=1;align=center;labelBackgroundColor=none;" vertex="1" parent="1">
          <mxGeometry x="1175" y="-50" width="105" height="40" as="geometry" />
        </mxCell>
        <mxCell id="eJ3n2poEC1Jb6eCSKDP9-102" value="" style="endArrow=none;html=1;rounded=0;entryX=0.5;entryY=0;entryDx=0;entryDy=0;exitX=0.5;exitY=1;exitDx=0;exitDy=0;labelBackgroundColor=none;fontColor=default;" edge="1" parent="1" source="eJ3n2poEC1Jb6eCSKDP9-101" target="eJ3n2poEC1Jb6eCSKDP9-97">
          <mxGeometry relative="1" as="geometry">
            <mxPoint x="1010" y="50" as="sourcePoint" />
            <mxPoint x="1170" y="50" as="targetPoint" />
          </mxGeometry>
        </mxCell>
        <mxCell id="eJ3n2poEC1Jb6eCSKDP9-103" value="" style="endArrow=none;html=1;rounded=0;entryX=0;entryY=0.25;entryDx=0;entryDy=0;exitX=1;exitY=0.5;exitDx=0;exitDy=0;labelBackgroundColor=none;fontColor=default;" edge="1" parent="1" source="eJ3n2poEC1Jb6eCSKDP9-100" target="eJ3n2poEC1Jb6eCSKDP9-97">
          <mxGeometry relative="1" as="geometry">
            <mxPoint x="1010" y="50" as="sourcePoint" />
            <mxPoint x="1170" y="50" as="targetPoint" />
          </mxGeometry>
        </mxCell>
        <mxCell id="eJ3n2poEC1Jb6eCSKDP9-104" value="" style="endArrow=none;html=1;rounded=0;entryX=0;entryY=0.75;entryDx=0;entryDy=0;exitX=1;exitY=0.5;exitDx=0;exitDy=0;labelBackgroundColor=none;fontColor=default;" edge="1" parent="1" source="eJ3n2poEC1Jb6eCSKDP9-99" target="eJ3n2poEC1Jb6eCSKDP9-97">
          <mxGeometry relative="1" as="geometry">
            <mxPoint x="1010" y="50" as="sourcePoint" />
            <mxPoint x="1170" y="50" as="targetPoint" />
          </mxGeometry>
        </mxCell>
        <mxCell id="eJ3n2poEC1Jb6eCSKDP9-105" value="rental_id" style="ellipse;whiteSpace=wrap;html=1;align=center;fontStyle=4;labelBackgroundColor=none;" vertex="1" parent="1">
          <mxGeometry x="840" y="-330" width="80" height="40" as="geometry" />
        </mxCell>
        <mxCell id="eJ3n2poEC1Jb6eCSKDP9-106" value="customer_id" style="ellipse;whiteSpace=wrap;html=1;align=center;fontStyle=4;labelBackgroundColor=none;" vertex="1" parent="1">
          <mxGeometry x="1040" y="-470" width="80" height="40" as="geometry" />
        </mxCell>
        <mxCell id="eJ3n2poEC1Jb6eCSKDP9-107" value="address_id" style="ellipse;whiteSpace=wrap;html=1;align=center;fontStyle=4;labelBackgroundColor=none;" vertex="1" parent="1">
          <mxGeometry x="1280" y="-430" width="80" height="40" as="geometry" />
        </mxCell>
        <mxCell id="eJ3n2poEC1Jb6eCSKDP9-108" value="city_id" style="ellipse;whiteSpace=wrap;html=1;align=center;fontStyle=4;labelBackgroundColor=none;" vertex="1" parent="1">
          <mxGeometry x="1490" y="-50" width="80" height="40" as="geometry" />
        </mxCell>
        <mxCell id="eJ3n2poEC1Jb6eCSKDP9-109" value="" style="endArrow=none;html=1;rounded=0;entryX=0.75;entryY=1;entryDx=0;entryDy=0;exitX=0.5;exitY=0;exitDx=0;exitDy=0;labelBackgroundColor=none;fontColor=default;" edge="1" parent="1" source="eJ3n2poEC1Jb6eCSKDP9-108" target="eJ3n2poEC1Jb6eCSKDP9-55">
          <mxGeometry relative="1" as="geometry">
            <mxPoint x="1540" y="-150" as="sourcePoint" />
            <mxPoint x="1510" y="-110" as="targetPoint" />
          </mxGeometry>
        </mxCell>
        <mxCell id="eJ3n2poEC1Jb6eCSKDP9-110" value="store_id" style="ellipse;whiteSpace=wrap;html=1;align=center;fontStyle=4;labelBackgroundColor=none;" vertex="1" parent="1">
          <mxGeometry x="1120" y="100" width="80" height="40" as="geometry" />
        </mxCell>
        <mxCell id="eJ3n2poEC1Jb6eCSKDP9-111" value="" style="endArrow=none;html=1;rounded=0;exitX=1;exitY=0;exitDx=0;exitDy=0;entryX=0.25;entryY=1;entryDx=0;entryDy=0;labelBackgroundColor=none;fontColor=default;" edge="1" parent="1" source="eJ3n2poEC1Jb6eCSKDP9-110" target="eJ3n2poEC1Jb6eCSKDP9-97">
          <mxGeometry relative="1" as="geometry">
            <mxPoint x="1170" y="30" as="sourcePoint" />
            <mxPoint x="1330" y="30" as="targetPoint" />
          </mxGeometry>
        </mxCell>
        <mxCell id="eJ3n2poEC1Jb6eCSKDP9-112" value="country_id" style="ellipse;whiteSpace=wrap;html=1;align=center;fontStyle=4;labelBackgroundColor=none;" vertex="1" parent="1">
          <mxGeometry x="1710" y="-120" width="80" height="40" as="geometry" />
        </mxCell>
        <mxCell id="eJ3n2poEC1Jb6eCSKDP9-113" value="" style="endArrow=none;html=1;rounded=0;entryX=1;entryY=0.5;entryDx=0;entryDy=0;exitX=0;exitY=0.5;exitDx=0;exitDy=0;labelBackgroundColor=none;fontColor=default;" edge="1" parent="1" source="eJ3n2poEC1Jb6eCSKDP9-112" target="eJ3n2poEC1Jb6eCSKDP9-56">
          <mxGeometry relative="1" as="geometry">
            <mxPoint x="1730.42" y="-180" as="sourcePoint" />
            <mxPoint x="1730" y="-140" as="targetPoint" />
          </mxGeometry>
        </mxCell>
        <mxCell id="eJ3n2poEC1Jb6eCSKDP9-114" value="inventory_id" style="ellipse;whiteSpace=wrap;html=1;align=center;fontStyle=4;labelBackgroundColor=none;" vertex="1" parent="1">
          <mxGeometry x="560" y="-50" width="80" height="40" as="geometry" />
        </mxCell>
        <mxCell id="eJ3n2poEC1Jb6eCSKDP9-115" value="" style="endArrow=none;html=1;rounded=0;entryX=0.5;entryY=0;entryDx=0;entryDy=0;exitX=0.5;exitY=1;exitDx=0;exitDy=0;labelBackgroundColor=none;fontColor=default;" edge="1" parent="1" source="eJ3n2poEC1Jb6eCSKDP9-5" target="eJ3n2poEC1Jb6eCSKDP9-114">
          <mxGeometry relative="1" as="geometry">
            <mxPoint x="679.5699999999999" y="-65" as="sourcePoint" />
            <mxPoint x="679.5699999999999" y="105" as="targetPoint" />
          </mxGeometry>
        </mxCell>
        <mxCell id="eJ3n2poEC1Jb6eCSKDP9-116" value="" style="endArrow=none;html=1;rounded=0;entryX=0.5;entryY=0;entryDx=0;entryDy=0;exitX=0.5;exitY=1;exitDx=0;exitDy=0;labelBackgroundColor=none;fontColor=default;" edge="1" parent="1" source="eJ3n2poEC1Jb6eCSKDP9-28" target="eJ3n2poEC1Jb6eCSKDP9-5">
          <mxGeometry relative="1" as="geometry">
            <mxPoint x="660" y="-385" as="sourcePoint" />
            <mxPoint x="660" y="-215" as="targetPoint" />
          </mxGeometry>
        </mxCell>
        <mxCell id="eJ3n2poEC1Jb6eCSKDP9-117" value="" style="endArrow=none;html=1;rounded=0;entryX=1;entryY=0.5;entryDx=0;entryDy=0;exitX=0;exitY=0.5;exitDx=0;exitDy=0;labelBackgroundColor=none;fontColor=default;" edge="1" parent="1" source="eJ3n2poEC1Jb6eCSKDP9-30" target="eJ3n2poEC1Jb6eCSKDP9-29">
          <mxGeometry relative="1" as="geometry">
            <mxPoint x="499.57" y="-390" as="sourcePoint" />
            <mxPoint x="499.57" y="-220" as="targetPoint" />
            <Array as="points">
              <mxPoint x="600" y="-140" />
            </Array>
          </mxGeometry>
        </mxCell>
        <mxCell id="eJ3n2poEC1Jb6eCSKDP9-118" value="film_id" style="ellipse;whiteSpace=wrap;html=1;align=center;fontStyle=4;labelBackgroundColor=none;" vertex="1" parent="1">
          <mxGeometry x="200" y="170" width="80" height="40" as="geometry" />
        </mxCell>
        <mxCell id="eJ3n2poEC1Jb6eCSKDP9-119" value="film_id" style="ellipse;whiteSpace=wrap;html=1;align=center;fontStyle=4;labelBackgroundColor=none;" vertex="1" parent="1">
          <mxGeometry x="50" y="320" width="80" height="40" as="geometry" />
        </mxCell>
        <mxCell id="eJ3n2poEC1Jb6eCSKDP9-120" value="category_id" style="ellipse;whiteSpace=wrap;html=1;align=center;fontStyle=4;labelBackgroundColor=none;" vertex="1" parent="1">
          <mxGeometry x="-50" y="320" width="80" height="40" as="geometry" />
        </mxCell>
        <mxCell id="eJ3n2poEC1Jb6eCSKDP9-121" value="" style="endArrow=none;html=1;rounded=0;entryX=0.5;entryY=0;entryDx=0;entryDy=0;exitX=0;exitY=1;exitDx=0;exitDy=0;labelBackgroundColor=none;fontColor=default;" edge="1" parent="1" source="eJ3n2poEC1Jb6eCSKDP9-7" target="eJ3n2poEC1Jb6eCSKDP9-120">
          <mxGeometry relative="1" as="geometry">
            <mxPoint x="-70" y="290" as="sourcePoint" />
            <mxPoint x="-70" y="330" as="targetPoint" />
          </mxGeometry>
        </mxCell>
        <mxCell id="eJ3n2poEC1Jb6eCSKDP9-122" value="" style="endArrow=none;html=1;rounded=0;entryX=0.5;entryY=0;entryDx=0;entryDy=0;exitX=1;exitY=1;exitDx=0;exitDy=0;labelBackgroundColor=none;fontColor=default;" edge="1" parent="1" source="eJ3n2poEC1Jb6eCSKDP9-7" target="eJ3n2poEC1Jb6eCSKDP9-119">
          <mxGeometry relative="1" as="geometry">
            <mxPoint x="160" y="280" as="sourcePoint" />
            <mxPoint x="160" y="320" as="targetPoint" />
          </mxGeometry>
        </mxCell>
        <mxCell id="eJ3n2poEC1Jb6eCSKDP9-123" value="category_id" style="ellipse;whiteSpace=wrap;html=1;align=center;fontStyle=4;labelBackgroundColor=none;" vertex="1" parent="1">
          <mxGeometry x="-320" y="240" width="80" height="40" as="geometry" />
        </mxCell>
        <mxCell id="eJ3n2poEC1Jb6eCSKDP9-124" value="" style="endArrow=none;html=1;rounded=0;entryX=0;entryY=0.5;entryDx=0;entryDy=0;exitX=1;exitY=0.5;exitDx=0;exitDy=0;labelBackgroundColor=none;fontColor=default;" edge="1" parent="1" source="eJ3n2poEC1Jb6eCSKDP9-123" target="eJ3n2poEC1Jb6eCSKDP9-2">
          <mxGeometry relative="1" as="geometry">
            <mxPoint x="-160.5" y="210" as="sourcePoint" />
            <mxPoint x="-160.5" y="250" as="targetPoint" />
          </mxGeometry>
        </mxCell>
        <mxCell id="eJ3n2poEC1Jb6eCSKDP9-125" value="" style="endArrow=none;html=1;rounded=0;exitX=0.5;exitY=1;exitDx=0;exitDy=0;labelBackgroundColor=none;fontColor=default;entryX=0.5;entryY=0;entryDx=0;entryDy=0;" edge="1" parent="1" source="eJ3n2poEC1Jb6eCSKDP9-24" target="eJ3n2poEC1Jb6eCSKDP9-3">
          <mxGeometry relative="1" as="geometry">
            <mxPoint x="319.99" y="-65" as="sourcePoint" />
            <mxPoint x="320" y="240" as="targetPoint" />
          </mxGeometry>
        </mxCell>
        <mxCell id="eJ3n2poEC1Jb6eCSKDP9-126" value="" style="endArrow=none;html=1;rounded=0;exitX=1;exitY=0.5;exitDx=0;exitDy=0;entryX=0;entryY=0.5;entryDx=0;entryDy=0;labelBackgroundColor=none;fontColor=default;" edge="1" parent="1" source="eJ3n2poEC1Jb6eCSKDP9-23" target="eJ3n2poEC1Jb6eCSKDP9-22">
          <mxGeometry relative="1" as="geometry">
            <mxPoint x="290" y="-60.43000000000001" as="sourcePoint" />
            <mxPoint x="340" y="-60.43000000000001" as="targetPoint" />
          </mxGeometry>
        </mxCell>
        <mxCell id="eJ3n2poEC1Jb6eCSKDP9-127" value="" style="endArrow=none;html=1;rounded=0;exitX=1;exitY=0.5;exitDx=0;exitDy=0;entryX=0;entryY=0.5;entryDx=0;entryDy=0;labelBackgroundColor=none;fontColor=default;" edge="1" parent="1" source="eJ3n2poEC1Jb6eCSKDP9-21" target="eJ3n2poEC1Jb6eCSKDP9-18">
          <mxGeometry relative="1" as="geometry">
            <mxPoint x="290" y="-10.870000000000005" as="sourcePoint" />
            <mxPoint x="340" y="-10.870000000000005" as="targetPoint" />
          </mxGeometry>
        </mxCell>
        <mxCell id="eJ3n2poEC1Jb6eCSKDP9-128" value="" style="endArrow=none;html=1;rounded=0;exitX=1;exitY=0.5;exitDx=0;exitDy=0;entryX=0;entryY=0.5;entryDx=0;entryDy=0;labelBackgroundColor=none;fontColor=default;" edge="1" parent="1" source="eJ3n2poEC1Jb6eCSKDP9-20" target="eJ3n2poEC1Jb6eCSKDP9-17">
          <mxGeometry relative="1" as="geometry">
            <mxPoint x="290" y="39.56999999999999" as="sourcePoint" />
            <mxPoint x="340" y="39.56999999999999" as="targetPoint" />
          </mxGeometry>
        </mxCell>
        <mxCell id="eJ3n2poEC1Jb6eCSKDP9-129" value="" style="endArrow=none;html=1;rounded=0;exitX=1;exitY=0.5;exitDx=0;exitDy=0;entryX=0;entryY=0.5;entryDx=0;entryDy=0;labelBackgroundColor=none;fontColor=default;" edge="1" parent="1" source="eJ3n2poEC1Jb6eCSKDP9-19" target="eJ3n2poEC1Jb6eCSKDP9-16">
          <mxGeometry relative="1" as="geometry">
            <mxPoint x="290" y="89.57" as="sourcePoint" />
            <mxPoint x="340" y="89.57" as="targetPoint" />
          </mxGeometry>
        </mxCell>
        <mxCell id="eJ3n2poEC1Jb6eCSKDP9-130" value="" style="endArrow=none;html=1;rounded=0;exitX=1;exitY=0.5;exitDx=0;exitDy=0;entryX=0;entryY=0.5;entryDx=0;entryDy=0;labelBackgroundColor=none;fontColor=default;" edge="1" parent="1" source="eJ3n2poEC1Jb6eCSKDP9-25" target="eJ3n2poEC1Jb6eCSKDP9-15">
          <mxGeometry relative="1" as="geometry">
            <mxPoint x="290" y="140" as="sourcePoint" />
            <mxPoint x="340" y="140" as="targetPoint" />
          </mxGeometry>
        </mxCell>
        <mxCell id="eJ3n2poEC1Jb6eCSKDP9-131" value="" style="endArrow=none;html=1;rounded=0;exitX=1;exitY=0.5;exitDx=0;exitDy=0;entryX=0;entryY=0.5;entryDx=0;entryDy=0;labelBackgroundColor=none;fontColor=default;" edge="1" parent="1" source="eJ3n2poEC1Jb6eCSKDP9-118" target="eJ3n2poEC1Jb6eCSKDP9-14">
          <mxGeometry relative="1" as="geometry">
            <mxPoint x="295" y="189.57" as="sourcePoint" />
            <mxPoint x="345" y="189.57" as="targetPoint" />
          </mxGeometry>
        </mxCell>
        <mxCell id="eJ3n2poEC1Jb6eCSKDP9-132" value="lenguage_id" style="ellipse;whiteSpace=wrap;html=1;align=center;fontStyle=4;labelBackgroundColor=none;" vertex="1" parent="1">
          <mxGeometry x="350" y="480" width="80" height="40" as="geometry" />
        </mxCell>
        <mxCell id="eJ3n2poEC1Jb6eCSKDP9-133" value="" style="endArrow=none;html=1;rounded=0;entryX=0.75;entryY=1;entryDx=0;entryDy=0;exitX=0;exitY=0;exitDx=0;exitDy=0;labelBackgroundColor=none;fontColor=default;" edge="1" parent="1" source="eJ3n2poEC1Jb6eCSKDP9-132" target="eJ3n2poEC1Jb6eCSKDP9-4">
          <mxGeometry relative="1" as="geometry">
            <mxPoint x="290" y="450" as="sourcePoint" />
            <mxPoint x="260" y="450" as="targetPoint" />
          </mxGeometry>
        </mxCell>
        <mxCell id="eJ3n2poEC1Jb6eCSKDP9-134" value="film_id" style="ellipse;whiteSpace=wrap;html=1;align=center;fontStyle=4;labelBackgroundColor=none;" vertex="1" parent="1">
          <mxGeometry x="440" y="300" width="80" height="40" as="geometry" />
        </mxCell>
        <mxCell id="eJ3n2poEC1Jb6eCSKDP9-135" value="actor_id" style="ellipse;whiteSpace=wrap;html=1;align=center;fontStyle=4;labelBackgroundColor=none;" vertex="1" parent="1">
          <mxGeometry x="560" y="300" width="80" height="40" as="geometry" />
        </mxCell>
        <mxCell id="eJ3n2poEC1Jb6eCSKDP9-136" value="" style="endArrow=none;html=1;rounded=0;entryX=1;entryY=1;entryDx=0;entryDy=0;exitX=0;exitY=0;exitDx=0;exitDy=0;labelBackgroundColor=none;fontColor=default;" edge="1" parent="1" source="eJ3n2poEC1Jb6eCSKDP9-32" target="eJ3n2poEC1Jb6eCSKDP9-134">
          <mxGeometry relative="1" as="geometry">
            <mxPoint x="522" y="360" as="sourcePoint" />
            <mxPoint x="500" y="334" as="targetPoint" />
          </mxGeometry>
        </mxCell>
        <mxCell id="eJ3n2poEC1Jb6eCSKDP9-137" value="" style="endArrow=none;html=1;rounded=0;entryX=0;entryY=1;entryDx=0;entryDy=0;exitX=1;exitY=0;exitDx=0;exitDy=0;labelBackgroundColor=none;fontColor=default;" edge="1" parent="1" source="eJ3n2poEC1Jb6eCSKDP9-32" target="eJ3n2poEC1Jb6eCSKDP9-135">
          <mxGeometry relative="1" as="geometry">
            <mxPoint x="624" y="420" as="sourcePoint" />
            <mxPoint x="620" y="394" as="targetPoint" />
          </mxGeometry>
        </mxCell>
        <mxCell id="eJ3n2poEC1Jb6eCSKDP9-138" value="actor_id" style="ellipse;whiteSpace=wrap;html=1;align=center;fontStyle=4;labelBackgroundColor=none;" vertex="1" parent="1">
          <mxGeometry x="720" y="290" width="80" height="40" as="geometry" />
        </mxCell>
        <mxCell id="eJ3n2poEC1Jb6eCSKDP9-139" value="" style="endArrow=none;html=1;rounded=0;entryX=0.5;entryY=0;entryDx=0;entryDy=0;exitX=0.5;exitY=1;exitDx=0;exitDy=0;labelBackgroundColor=none;fontColor=default;" edge="1" parent="1" source="eJ3n2poEC1Jb6eCSKDP9-138" target="eJ3n2poEC1Jb6eCSKDP9-6">
          <mxGeometry relative="1" as="geometry">
            <mxPoint x="750" y="340" as="sourcePoint" />
            <mxPoint x="759.86" y="347.5" as="targetPoint" />
          </mxGeometry>
        </mxCell>
        <mxCell id="eJ3n2poEC1Jb6eCSKDP9-140" value="rental_id" style="ellipse;whiteSpace=wrap;html=1;align=center;labelBackgroundColor=none;" vertex="1" parent="1">
          <mxGeometry x="790" y="50" width="80" height="40" as="geometry" />
        </mxCell>
        <mxCell id="eJ3n2poEC1Jb6eCSKDP9-141" value="customer_id" style="ellipse;whiteSpace=wrap;html=1;align=center;labelBackgroundColor=none;" vertex="1" parent="1">
          <mxGeometry x="790" y="100" width="80" height="40" as="geometry" />
        </mxCell>
        <mxCell id="eJ3n2poEC1Jb6eCSKDP9-142" value="staff_id" style="ellipse;whiteSpace=wrap;html=1;align=center;labelBackgroundColor=none;" vertex="1" parent="1">
          <mxGeometry x="690" y="50" width="80" height="40" as="geometry" />
        </mxCell>
        <mxCell id="eJ3n2poEC1Jb6eCSKDP9-143" value="payment_date" style="ellipse;whiteSpace=wrap;html=1;align=center;labelBackgroundColor=none;" vertex="1" parent="1">
          <mxGeometry x="790" width="80" height="40" as="geometry" />
        </mxCell>
        <mxCell id="eJ3n2poEC1Jb6eCSKDP9-144" value="amount" style="ellipse;whiteSpace=wrap;html=1;align=center;labelBackgroundColor=none;" vertex="1" parent="1">
          <mxGeometry x="690" width="80" height="40" as="geometry" />
        </mxCell>
        <mxCell id="eJ3n2poEC1Jb6eCSKDP9-145" value="" style="endArrow=none;html=1;rounded=0;exitX=1;exitY=0.5;exitDx=0;exitDy=0;entryX=0;entryY=0.5;entryDx=0;entryDy=0;labelBackgroundColor=none;fontColor=default;" edge="1" parent="1" source="eJ3n2poEC1Jb6eCSKDP9-144" target="eJ3n2poEC1Jb6eCSKDP9-143">
          <mxGeometry relative="1" as="geometry">
            <mxPoint x="780" as="sourcePoint" />
            <mxPoint x="820" y="10" as="targetPoint" />
          </mxGeometry>
        </mxCell>
        <mxCell id="eJ3n2poEC1Jb6eCSKDP9-146" value="" style="endArrow=none;html=1;rounded=0;exitX=1;exitY=0.5;exitDx=0;exitDy=0;entryX=0;entryY=0.5;entryDx=0;entryDy=0;labelBackgroundColor=none;fontColor=default;" edge="1" parent="1" target="eJ3n2poEC1Jb6eCSKDP9-140">
          <mxGeometry relative="1" as="geometry">
            <mxPoint x="770" y="69.75999999999999" as="sourcePoint" />
            <mxPoint x="830" y="69.75999999999999" as="targetPoint" />
          </mxGeometry>
        </mxCell>
        <mxCell id="eJ3n2poEC1Jb6eCSKDP9-147" value="" style="endArrow=none;html=1;rounded=0;exitX=1;exitY=0.5;exitDx=0;exitDy=0;entryX=0;entryY=0.5;entryDx=0;entryDy=0;labelBackgroundColor=none;fontColor=default;" edge="1" parent="1" target="eJ3n2poEC1Jb6eCSKDP9-141">
          <mxGeometry relative="1" as="geometry">
            <mxPoint x="770" y="119.75999999999999" as="sourcePoint" />
            <mxPoint x="830" y="119.75999999999999" as="targetPoint" />
          </mxGeometry>
        </mxCell>
        <mxCell id="eJ3n2poEC1Jb6eCSKDP9-148" value="" style="endArrow=none;html=1;rounded=0;labelBackgroundColor=none;fontColor=default;" edge="1" parent="1">
          <mxGeometry relative="1" as="geometry">
            <mxPoint x="780" y="20" as="sourcePoint" />
            <mxPoint x="840" y="179.63" as="targetPoint" />
            <Array as="points">
              <mxPoint x="780" y="180" />
            </Array>
          </mxGeometry>
        </mxCell>
        <mxCell id="eJ3n2poEC1Jb6eCSKDP9-149" value="payment_id" style="ellipse;whiteSpace=wrap;html=1;align=center;fontStyle=4;labelBackgroundColor=none;" vertex="1" parent="1">
          <mxGeometry x="690" y="100" width="80" height="40" as="geometry" />
        </mxCell>
        <mxCell id="eJ3n2poEC1Jb6eCSKDP9-150" value="" style="endArrow=none;html=1;rounded=0;entryX=1;entryY=0.5;entryDx=0;entryDy=0;exitX=0;exitY=0.5;exitDx=0;exitDy=0;labelBackgroundColor=none;fontColor=default;" edge="1" parent="1" source="eJ3n2poEC1Jb6eCSKDP9-161" target="eJ3n2poEC1Jb6eCSKDP9-96">
          <mxGeometry relative="1" as="geometry">
            <mxPoint x="1720" y="180" as="sourcePoint" />
            <mxPoint x="1760" y="290" as="targetPoint" />
          </mxGeometry>
        </mxCell>
        <mxCell id="eJ3n2poEC1Jb6eCSKDP9-151" value="staff_id" style="ellipse;whiteSpace=wrap;html=1;align=center;fontStyle=4;labelBackgroundColor=none;" vertex="1" parent="1">
          <mxGeometry x="1370" y="120" width="80" height="40" as="geometry" />
        </mxCell>
        <mxCell id="eJ3n2poEC1Jb6eCSKDP9-152" value="email" style="ellipse;whiteSpace=wrap;html=1;align=center;labelBackgroundColor=none;" vertex="1" parent="1">
          <mxGeometry x="1550" y="200" width="80" height="40" as="geometry" />
        </mxCell>
        <mxCell id="eJ3n2poEC1Jb6eCSKDP9-153" value="last_name" style="ellipse;whiteSpace=wrap;html=1;align=center;labelBackgroundColor=none;" vertex="1" parent="1">
          <mxGeometry x="1460" y="200" width="80" height="40" as="geometry" />
        </mxCell>
        <mxCell id="eJ3n2poEC1Jb6eCSKDP9-154" value="first_name" style="ellipse;whiteSpace=wrap;html=1;align=center;labelBackgroundColor=none;" vertex="1" parent="1">
          <mxGeometry x="1370" y="200" width="80" height="40" as="geometry" />
        </mxCell>
        <mxCell id="eJ3n2poEC1Jb6eCSKDP9-155" value="active" style="ellipse;whiteSpace=wrap;html=1;align=center;labelBackgroundColor=none;" vertex="1" parent="1">
          <mxGeometry x="1640" y="120" width="80" height="40" as="geometry" />
        </mxCell>
        <mxCell id="eJ3n2poEC1Jb6eCSKDP9-156" value="store_id" style="ellipse;whiteSpace=wrap;html=1;align=center;labelBackgroundColor=none;" vertex="1" parent="1">
          <mxGeometry x="1550" y="120" width="80" height="40" as="geometry" />
        </mxCell>
        <mxCell id="eJ3n2poEC1Jb6eCSKDP9-157" value="address_id" style="ellipse;whiteSpace=wrap;html=1;align=center;labelBackgroundColor=none;" vertex="1" parent="1">
          <mxGeometry x="1460" y="120" width="80" height="40" as="geometry" />
        </mxCell>
        <mxCell id="eJ3n2poEC1Jb6eCSKDP9-158" value="username" style="ellipse;whiteSpace=wrap;html=1;align=center;labelBackgroundColor=none;" vertex="1" parent="1">
          <mxGeometry x="1640" y="200" width="80" height="40" as="geometry" />
        </mxCell>
        <mxCell id="eJ3n2poEC1Jb6eCSKDP9-159" value="password" style="ellipse;whiteSpace=wrap;html=1;align=center;labelBackgroundColor=none;" vertex="1" parent="1">
          <mxGeometry x="1730" y="120" width="80" height="40" as="geometry" />
        </mxCell>
        <mxCell id="eJ3n2poEC1Jb6eCSKDP9-160" value="last_update" style="ellipse;whiteSpace=wrap;html=1;align=center;labelBackgroundColor=none;" vertex="1" parent="1">
          <mxGeometry x="1730" y="200" width="80" height="40" as="geometry" />
        </mxCell>
        <mxCell id="eJ3n2poEC1Jb6eCSKDP9-161" value="picture" style="ellipse;whiteSpace=wrap;html=1;align=center;labelBackgroundColor=none;" vertex="1" parent="1">
          <mxGeometry x="1810" y="160" width="80" height="40" as="geometry" />
        </mxCell>
        <mxCell id="eJ3n2poEC1Jb6eCSKDP9-162" value="" style="endArrow=none;html=1;rounded=0;entryX=0.5;entryY=0;entryDx=0;entryDy=0;exitX=0.5;exitY=1;exitDx=0;exitDy=0;labelBackgroundColor=none;fontColor=default;" edge="1" parent="1">
          <mxGeometry relative="1" as="geometry">
            <mxPoint x="1410.05" y="160" as="sourcePoint" />
            <mxPoint x="1409.6299999999999" y="200" as="targetPoint" />
          </mxGeometry>
        </mxCell>
        <mxCell id="eJ3n2poEC1Jb6eCSKDP9-163" value="" style="endArrow=none;html=1;rounded=0;entryX=0.5;entryY=0;entryDx=0;entryDy=0;exitX=0.5;exitY=1;exitDx=0;exitDy=0;labelBackgroundColor=none;fontColor=default;" edge="1" parent="1">
          <mxGeometry relative="1" as="geometry">
            <mxPoint x="1500.05" y="160" as="sourcePoint" />
            <mxPoint x="1499.6299999999999" y="200" as="targetPoint" />
          </mxGeometry>
        </mxCell>
        <mxCell id="eJ3n2poEC1Jb6eCSKDP9-164" value="" style="endArrow=none;html=1;rounded=0;entryX=0.5;entryY=0;entryDx=0;entryDy=0;exitX=0.5;exitY=1;exitDx=0;exitDy=0;labelBackgroundColor=none;fontColor=default;" edge="1" parent="1">
          <mxGeometry relative="1" as="geometry">
            <mxPoint x="1590.05" y="160" as="sourcePoint" />
            <mxPoint x="1589.6299999999999" y="200" as="targetPoint" />
          </mxGeometry>
        </mxCell>
        <mxCell id="eJ3n2poEC1Jb6eCSKDP9-165" value="" style="endArrow=none;html=1;rounded=0;entryX=0.5;entryY=0;entryDx=0;entryDy=0;exitX=0.5;exitY=1;exitDx=0;exitDy=0;labelBackgroundColor=none;fontColor=default;" edge="1" parent="1">
          <mxGeometry relative="1" as="geometry">
            <mxPoint x="1680.42" y="160" as="sourcePoint" />
            <mxPoint x="1680" y="200" as="targetPoint" />
          </mxGeometry>
        </mxCell>
        <mxCell id="eJ3n2poEC1Jb6eCSKDP9-166" value="" style="endArrow=none;html=1;rounded=0;entryX=0.5;entryY=0;entryDx=0;entryDy=0;exitX=0.5;exitY=1;exitDx=0;exitDy=0;labelBackgroundColor=none;fontColor=default;" edge="1" parent="1">
          <mxGeometry relative="1" as="geometry">
            <mxPoint x="1770.05" y="160" as="sourcePoint" />
            <mxPoint x="1769.6299999999999" y="200" as="targetPoint" />
          </mxGeometry>
        </mxCell>
        <mxCell id="eJ3n2poEC1Jb6eCSKDP9-167" value="" style="edgeStyle=entityRelationEdgeStyle;fontSize=12;html=1;endArrow=ERzeroToOne;startArrow=ERmandOne;rounded=0;entryX=0;entryY=0.5;entryDx=0;entryDy=0;exitX=1;exitY=0.5;exitDx=0;exitDy=0;" edge="1" parent="1">
          <mxGeometry width="100" height="100" relative="1" as="geometry">
            <mxPoint x="-130" y="259.55" as="sourcePoint" />
            <mxPoint x="-10" y="259.55" as="targetPoint" />
          </mxGeometry>
        </mxCell>
        <mxCell id="eJ3n2poEC1Jb6eCSKDP9-168" value="" style="edgeStyle=entityRelationEdgeStyle;fontSize=12;html=1;endArrow=ERzeroToOne;startArrow=ERmandOne;rounded=0;entryX=1;entryY=0.5;entryDx=0;entryDy=0;exitX=0;exitY=0.5;exitDx=0;exitDy=0;" edge="1" parent="1" source="eJ3n2poEC1Jb6eCSKDP9-3" target="eJ3n2poEC1Jb6eCSKDP9-7">
          <mxGeometry width="100" height="100" relative="1" as="geometry">
            <mxPoint x="-120" y="269.55" as="sourcePoint" />
            <mxPoint y="269.55" as="targetPoint" />
            <Array as="points">
              <mxPoint x="100" y="260" />
            </Array>
          </mxGeometry>
        </mxCell>
        <mxCell id="eJ3n2poEC1Jb6eCSKDP9-169" value="" style="fontSize=12;html=1;endArrow=ERzeroToMany;startArrow=ERmandOne;rounded=0;entryX=0.5;entryY=1;entryDx=0;entryDy=0;exitX=0.5;exitY=0;exitDx=0;exitDy=0;" edge="1" parent="1" source="eJ3n2poEC1Jb6eCSKDP9-4" target="eJ3n2poEC1Jb6eCSKDP9-3">
          <mxGeometry width="100" height="100" relative="1" as="geometry">
            <mxPoint x="190" y="400" as="sourcePoint" />
            <mxPoint x="290" y="300" as="targetPoint" />
          </mxGeometry>
        </mxCell>
        <mxCell id="eJ3n2poEC1Jb6eCSKDP9-170" value="" style="fontSize=12;html=1;endArrow=ERzeroToMany;startArrow=ERmandOne;rounded=0;exitX=1;exitY=0.75;exitDx=0;exitDy=0;entryX=0;entryY=0.75;entryDx=0;entryDy=0;edgeStyle=elbowEdgeStyle;" edge="1" parent="1">
          <mxGeometry width="100" height="100" relative="1" as="geometry">
            <mxPoint x="360" y="260" as="sourcePoint" />
            <mxPoint x="560" y="-100" as="targetPoint" />
          </mxGeometry>
        </mxCell>
        <mxCell id="eJ3n2poEC1Jb6eCSKDP9-171" value="" style="edgeStyle=entityRelationEdgeStyle;fontSize=12;html=1;endArrow=ERzeroToOne;startArrow=ERmandOne;rounded=0;exitX=1;exitY=0.5;exitDx=0;exitDy=0;" edge="1" parent="1" source="eJ3n2poEC1Jb6eCSKDP9-5" target="eJ3n2poEC1Jb6eCSKDP9-31">
          <mxGeometry width="100" height="100" relative="1" as="geometry">
            <mxPoint x="810" y="-70" as="sourcePoint" />
            <mxPoint x="620" y="-70" as="targetPoint" />
            <Array as="points">
              <mxPoint x="630" y="-70" />
              <mxPoint x="640" y="-110" />
            </Array>
          </mxGeometry>
        </mxCell>
        <mxCell id="eJ3n2poEC1Jb6eCSKDP9-172" value="" style="edgeStyle=entityRelationEdgeStyle;fontSize=12;html=1;endArrow=ERzeroToOne;startArrow=ERmandOne;rounded=0;exitX=0;exitY=0.5;exitDx=0;exitDy=0;entryX=1;entryY=0.5;entryDx=0;entryDy=0;" edge="1" parent="1" source="eJ3n2poEC1Jb6eCSKDP9-53" target="eJ3n2poEC1Jb6eCSKDP9-31">
          <mxGeometry width="100" height="100" relative="1" as="geometry">
            <mxPoint x="1050" y="-50" as="sourcePoint" />
            <mxPoint x="860" y="-50" as="targetPoint" />
            <Array as="points">
              <mxPoint x="870" y="-50" />
            </Array>
          </mxGeometry>
        </mxCell>
        <mxCell id="eJ3n2poEC1Jb6eCSKDP9-173" value="" style="fontSize=12;html=1;endArrow=ERzeroToMany;startArrow=ERmandOne;rounded=0;entryX=1;entryY=0.5;entryDx=0;entryDy=0;exitX=0;exitY=0.5;exitDx=0;exitDy=0;" edge="1" parent="1" source="eJ3n2poEC1Jb6eCSKDP9-54" target="eJ3n2poEC1Jb6eCSKDP9-53">
          <mxGeometry width="100" height="100" relative="1" as="geometry">
            <mxPoint x="1270" y="-100" as="sourcePoint" />
            <mxPoint x="1200" y="-140" as="targetPoint" />
          </mxGeometry>
        </mxCell>
        <mxCell id="eJ3n2poEC1Jb6eCSKDP9-174" value="" style="fontSize=12;html=1;endArrow=ERzeroToMany;startArrow=ERmandOne;rounded=0;entryX=1;entryY=0.5;entryDx=0;entryDy=0;exitX=0;exitY=0.5;exitDx=0;exitDy=0;" edge="1" parent="1" source="eJ3n2poEC1Jb6eCSKDP9-55" target="eJ3n2poEC1Jb6eCSKDP9-54">
          <mxGeometry width="100" height="100" relative="1" as="geometry">
            <mxPoint x="1510" y="-90.91" as="sourcePoint" />
            <mxPoint x="1350" y="-90.91" as="targetPoint" />
          </mxGeometry>
        </mxCell>
        <mxCell id="eJ3n2poEC1Jb6eCSKDP9-175" value="" style="fontSize=12;html=1;endArrow=ERzeroToMany;startArrow=ERmandOne;rounded=0;exitX=0;exitY=0.5;exitDx=0;exitDy=0;" edge="1" parent="1" source="eJ3n2poEC1Jb6eCSKDP9-56">
          <mxGeometry width="100" height="100" relative="1" as="geometry">
            <mxPoint x="1590" y="-100.45" as="sourcePoint" />
            <mxPoint x="1520" y="-100" as="targetPoint" />
          </mxGeometry>
        </mxCell>
        <mxCell id="eJ3n2poEC1Jb6eCSKDP9-176" value="" style="fontSize=12;html=1;endArrow=ERzeroToMany;startArrow=ERmandOne;rounded=0;entryX=0.5;entryY=0;entryDx=0;entryDy=0;exitX=0.5;exitY=1;exitDx=0;exitDy=0;" edge="1" parent="1" source="eJ3n2poEC1Jb6eCSKDP9-54" target="eJ3n2poEC1Jb6eCSKDP9-96">
          <mxGeometry width="100" height="100" relative="1" as="geometry">
            <mxPoint x="1310" y="-70" as="sourcePoint" />
            <mxPoint x="1150" y="-70" as="targetPoint" />
          </mxGeometry>
        </mxCell>
        <mxCell id="eJ3n2poEC1Jb6eCSKDP9-177" value="" style="fontSize=12;html=1;endArrow=ERzeroToMany;startArrow=ERmandOne;rounded=0;entryX=1;entryY=0.5;entryDx=0;entryDy=0;exitX=0.25;exitY=1;exitDx=0;exitDy=0;edgeStyle=orthogonalEdgeStyle;" edge="1" parent="1" source="eJ3n2poEC1Jb6eCSKDP9-54" target="eJ3n2poEC1Jb6eCSKDP9-97">
          <mxGeometry width="100" height="100" relative="1" as="geometry">
            <mxPoint x="1330" y="-50" as="sourcePoint" />
            <mxPoint x="1170" y="-50" as="targetPoint" />
          </mxGeometry>
        </mxCell>
        <mxCell id="eJ3n2poEC1Jb6eCSKDP9-178" value="" style="edgeStyle=elbowEdgeStyle;fontSize=12;html=1;endArrow=ERzeroToOne;startArrow=ERmandOne;rounded=0;exitX=0.185;exitY=-0.011;exitDx=0;exitDy=0;entryX=0.5;entryY=1;entryDx=0;entryDy=0;exitPerimeter=0;" edge="1" parent="1" source="eJ3n2poEC1Jb6eCSKDP9-96" target="eJ3n2poEC1Jb6eCSKDP9-97">
          <mxGeometry width="100" height="100" relative="1" as="geometry">
            <mxPoint x="1270" y="130" as="sourcePoint" />
            <mxPoint x="1370" y="30" as="targetPoint" />
          </mxGeometry>
        </mxCell>
        <mxCell id="eJ3n2poEC1Jb6eCSKDP9-179" value="" style="edgeStyle=orthogonalEdgeStyle;fontSize=12;html=1;endArrow=ERzeroToOne;startArrow=ERmandOne;rounded=0;exitX=0.75;exitY=1;exitDx=0;exitDy=0;elbow=vertical;entryX=0;entryY=0.5;entryDx=0;entryDy=0;" edge="1" parent="1" source="eJ3n2poEC1Jb6eCSKDP9-3" target="eJ3n2poEC1Jb6eCSKDP9-32">
          <mxGeometry width="100" height="100" relative="1" as="geometry">
            <mxPoint x="430" y="410" as="sourcePoint" />
            <mxPoint x="490" y="380" as="targetPoint" />
          </mxGeometry>
        </mxCell>
        <mxCell id="eJ3n2poEC1Jb6eCSKDP9-180" value="" style="edgeStyle=entityRelationEdgeStyle;fontSize=12;html=1;endArrow=ERzeroToOne;startArrow=ERmandOne;rounded=0;exitX=0;exitY=0.5;exitDx=0;exitDy=0;entryX=1;entryY=0.5;entryDx=0;entryDy=0;" edge="1" parent="1" source="eJ3n2poEC1Jb6eCSKDP9-6" target="eJ3n2poEC1Jb6eCSKDP9-32">
          <mxGeometry width="100" height="100" relative="1" as="geometry">
            <mxPoint x="640" y="410" as="sourcePoint" />
            <mxPoint x="740" y="310" as="targetPoint" />
          </mxGeometry>
        </mxCell>
        <mxCell id="eJ3n2poEC1Jb6eCSKDP9-181" value="" style="edgeStyle=orthogonalEdgeStyle;fontSize=12;html=1;endArrow=ERzeroToOne;startArrow=ERmandOne;rounded=0;exitX=0.5;exitY=1;exitDx=0;exitDy=0;elbow=vertical;curved=1;entryX=0;entryY=1;entryDx=0;entryDy=0;" edge="1" parent="1" source="eJ3n2poEC1Jb6eCSKDP9-96" target="eJ3n2poEC1Jb6eCSKDP9-31">
          <mxGeometry width="100" height="100" relative="1" as="geometry">
            <mxPoint x="1290" y="219" as="sourcePoint" />
            <mxPoint x="842.0799999999999" y="-56.919999999999845" as="targetPoint" />
            <Array as="points">
              <mxPoint x="1290" y="200" />
              <mxPoint x="1290" y="260" />
              <mxPoint x="630" y="260" />
              <mxPoint x="630" y="-61" />
              <mxPoint x="810" y="-61" />
              <mxPoint x="810" y="-57" />
              <mxPoint x="840" y="-57" />
            </Array>
          </mxGeometry>
        </mxCell>
        <mxCell id="eJ3n2poEC1Jb6eCSKDP9-182" value="" style="edgeStyle=elbowEdgeStyle;fontSize=12;html=1;endArrow=ERzeroToMany;startArrow=ERmandOne;rounded=0;exitX=0.5;exitY=1;exitDx=0;exitDy=0;elbow=vertical;" edge="1" parent="1" source="eJ3n2poEC1Jb6eCSKDP9-53">
          <mxGeometry width="100" height="100" relative="1" as="geometry">
            <mxPoint x="1010" y="100" as="sourcePoint" />
            <mxPoint x="910" y="160" as="targetPoint" />
          </mxGeometry>
        </mxCell>
        <mxCell id="eJ3n2poEC1Jb6eCSKDP9-183" value="" style="fontSize=12;html=1;endArrow=ERzeroToMany;startArrow=ERmandOne;rounded=0;exitX=0.5;exitY=1;exitDx=0;exitDy=0;entryX=0.5;entryY=0;entryDx=0;entryDy=0;" edge="1" parent="1" source="eJ3n2poEC1Jb6eCSKDP9-31" target="eJ3n2poEC1Jb6eCSKDP9-95">
          <mxGeometry width="100" height="100" relative="1" as="geometry">
            <mxPoint x="1010" y="100" as="sourcePoint" />
            <mxPoint x="880" y="150" as="targetPoint" />
          </mxGeometry>
        </mxCell>
        <mxCell id="eJ3n2poEC1Jb6eCSKDP9-184" value="" style="edgeStyle=entityRelationEdgeStyle;fontSize=12;html=1;endArrow=ERzeroToMany;startArrow=ERmandOne;rounded=0;exitX=0;exitY=0.5;exitDx=0;exitDy=0;entryX=1;entryY=0.5;entryDx=0;entryDy=0;" edge="1" parent="1" source="eJ3n2poEC1Jb6eCSKDP9-96" target="eJ3n2poEC1Jb6eCSKDP9-95">
          <mxGeometry width="100" height="100" relative="1" as="geometry">
            <mxPoint x="1020" y="200" as="sourcePoint" />
            <mxPoint x="1120" y="100" as="targetPoint" />
          </mxGeometry>
        </mxCell>
      </root>
    </mxGraphModel>
  </diagram>
</mxfile>
